<svg aria-hidden="true" style="position: absolute; width: 0; height: 0; overflow: hidden;" version="1.1" xmlns="http://www.w3.org/2000/svg" xmlns:xlink="http://www.w3.org/1999/xlink">
<defs>
<symbol id="icon-arrow-right" viewBox="0 0 24 24">
<path d="M11.293 5.707l5.293 5.293h-11.586c-0.552 0-1 0.448-1 1s0.448 1 1 1h11.586l-5.293 5.293c-0.391 0.391-0.391 1.024 0 1.414s1.024 0.391 1.414 0l7-7c0.092-0.092 0.166-0.202 0.217-0.324 0.101-0.245 0.101-0.521 0-0.766-0.049-0.118-0.121-0.228-0.217-0.324l-7-7c-0.391-0.391-1.024-0.391-1.414 0s-0.391 1.024 0 1.414z"></path>
</symbol>
<symbol id="icon-check" viewBox="0 0 24 24">
<path d="M19.293 5.293l-10.293 10.293-4.293-4.293c-0.391-0.391-1.024-0.391-1.414 0s-0.391 1.024 0 1.414l5 5c0.391 0.391 1.024 0.391 1.414 0l11-11c0.391-0.391 0.391-1.024 0-1.414s-1.024-0.391-1.414 0z"></path>
</symbol>
<symbol id="icon-check-circle" viewBox="0 0 24 24">
<path d="M21 11.080v0.92c-0.001 2.485-1.009 4.733-2.64 6.362s-3.88 2.634-6.365 2.632-4.734-1.009-6.362-2.64-2.634-3.879-2.633-6.365 1.009-4.733 2.64-6.362 3.88-2.634 6.365-2.633c1.33 0.001 2.586 0.289 3.649 0.775 0.502 0.23 1.096 0.008 1.325-0.494s0.008-1.096-0.494-1.325c-1.327-0.606-2.866-0.955-4.479-0.956-3.037-0.002-5.789 1.229-7.78 3.217s-3.224 4.74-3.226 7.777 1.229 5.789 3.217 7.78 4.739 3.225 7.776 3.226 5.789-1.229 7.78-3.217 3.225-4.739 3.227-7.777v-0.92c0-0.552-0.448-1-1-1s-1 0.448-1 1zM21.293 3.293l-9.293 9.302-2.293-2.292c-0.391-0.391-1.024-0.391-1.414 0s-0.391 1.024 0 1.414l3 3c0.391 0.391 1.024 0.39 1.415 0l10-10.010c0.39-0.391 0.39-1.024-0.001-1.414s-1.024-0.39-1.414 0.001z"></path>
</symbol>
<symbol id="icon-chevron-right" viewBox="0 0 24 24">
<path d="M9.707 18.707l6-6c0.391-0.391 0.391-1.024 0-1.414l-6-6c-0.391-0.391-1.024-0.391-1.414 0s-0.391 1.024 0 1.414l5.293 5.293-5.293 5.293c-0.391 0.391-0.391 1.024 0 1.414s1.024 0.391 1.414 0z"></path>
</symbol>
<symbol id="icon-code" viewBox="0 0 24 24">
<path d="M16.707 18.707l6-6c0.391-0.391 0.391-1.024 0-1.414l-6-6c-0.391-0.391-1.024-0.391-1.414 0s-0.391 1.024 0 1.414l5.293 5.293-5.293 5.293c-0.391 0.391-0.391 1.024 0 1.414s1.024 0.391 1.414 0zM7.293 5.293l-6 6c-0.391 0.391-0.391 1.024 0 1.414l6 6c0.391 0.391 1.024 0.391 1.414 0s0.391-1.024 0-1.414l-5.293-5.293 5.293-5.293c0.391-0.391 0.391-1.024 0-1.414s-1.024-0.391-1.414 0z"></path>
</symbol>
<symbol id="icon-edit-2" viewBox="0 0 24 24">
<path d="M16.293 2.293l-13.5 13.5c-0.117 0.116-0.21 0.268-0.258 0.444l-1.5 5.5c-0.046 0.163-0.049 0.346 0 0.526 0.145 0.533 0.695 0.847 1.228 0.702l5.5-1.5c0.159-0.042 0.315-0.129 0.444-0.258l13.5-13.5c0.747-0.747 1.121-1.729 1.121-2.707s-0.374-1.96-1.121-2.707-1.729-1.121-2.707-1.121-1.96 0.374-2.707 1.121zM17.707 3.707c0.357-0.357 0.824-0.535 1.293-0.535s0.936 0.178 1.293 0.536 0.535 0.823 0.535 1.292-0.178 0.936-0.535 1.293l-13.312 13.312-3.556 0.97 0.97-3.555z"></path>
</symbol>
<symbol id="icon-facebook" viewBox="0 0 24 24">
<path d="M17 3v2h-2c-0.552 0-1.053 0.225-1.414 0.586s-0.586 0.862-0.586 1.414v3c0 0.552 0.448 1 1 1h2.719l-0.5 2h-2.219c-0.552 0-1 0.448-1 1v7h-2v-7c0-0.552-0.448-1-1-1h-2v-2h2c0.552 0 1-0.448 1-1v-3c0-1.105 0.447-2.103 1.172-2.828s1.723-1.172 2.828-1.172zM18 1h-3c-1.657 0-3.158 0.673-4.243 1.757s-1.757 2.586-1.757 4.243v2h-2c-0.552 0-1 0.448-1 1v4c0 0.552 0.448 1 1 1h2v7c0 0.552 0.448 1 1 1h4c0.552 0 1-0.448 1-1v-7h2c0.466 0 0.858-0.319 0.97-0.757l1-4c0.134-0.536-0.192-1.079-0.728-1.213-0.083-0.021-0.167-0.031-0.242-0.030h-3v-2h3c0.552 0 1-0.448 1-1v-4c0-0.552-0.448-1-1-1z"></path>
</symbol>
<symbol id="icon-feather" viewBox="0 0 24 24">
<path d="M18.111 15.792c0.069-0.053 0.13-0.115 0.183-0.184l2.653-2.661c1.367-1.367 2.051-3.161 2.051-4.952s-0.684-3.585-2.051-4.952-3.161-2.051-4.952-2.051-3.585 0.684-4.952 2.051l-6.75 6.75c-0.195 0.195-0.293 0.451-0.293 0.707v8.086l-2.707 2.707c-0.391 0.391-0.391 1.024 0 1.414s1.024 0.391 1.414 0l2.707-2.707h8.086c0.277 0 0.527-0.112 0.708-0.294zM9.414 16h5.665l-1.994 2h-5.671zM17.073 14h-5.659l5.293-5.293c0.391-0.391 0.391-1.024 0-1.414s-1.024-0.391-1.414 0l-9.293 9.293v-5.672l6.457-6.457c0.977-0.977 2.256-1.465 3.538-1.465s2.561 0.488 3.538 1.465 1.465 2.256 1.465 3.538-0.488 2.561-1.465 3.538z"></path>
</symbol>
<symbol id="icon-figma" viewBox="0 0 24 24">
<path d="M13 12.5c0-0.691 0.279-1.314 0.732-1.768s1.077-0.732 1.768-0.732 1.314 0.279 1.768 0.732 0.732 1.077 0.732 1.768-0.279 1.314-0.732 1.768-1.077 0.732-1.768 0.732-1.314-0.279-1.768-0.732-0.732-1.077-0.732-1.768zM8.5 8c-0.691 0-1.314-0.279-1.768-0.732s-0.732-1.077-0.732-1.768 0.279-1.314 0.732-1.768 1.077-0.732 1.768-0.732h2.5v5zM13 8v-5h2.5c0.691 0 1.314 0.279 1.768 0.732s0.732 1.077 0.732 1.768-0.279 1.314-0.732 1.768-1.077 0.732-1.768 0.732zM11 17v2.5c0 0.691-0.279 1.314-0.732 1.768s-1.077 0.732-1.768 0.732-1.314-0.279-1.768-0.732-0.732-1.077-0.732-1.768 0.279-1.314 0.732-1.768 1.077-0.732 1.768-0.732zM4 12.5c0 1.242 0.505 2.369 1.318 3.182 0.112 0.112 0.23 0.218 0.353 0.318-0.123 0.1-0.241 0.206-0.353 0.318-0.813 0.813-1.318 1.94-1.318 3.182s0.505 2.369 1.318 3.182 1.94 1.318 3.182 1.318 2.369-0.505 3.182-1.318 1.318-1.94 1.318-3.182v-3.258c0.715 0.478 1.575 0.758 2.5 0.758 1.242 0 2.369-0.505 3.182-1.318s1.318-1.94 1.318-3.182-0.505-2.369-1.318-3.182c-0.112-0.112-0.23-0.218-0.353-0.318 0.123-0.1 0.241-0.206 0.353-0.318 0.813-0.813 1.318-1.94 1.318-3.182s-0.505-2.369-1.318-3.182-1.94-1.318-3.182-1.318h-7c-1.242 0-2.369 0.505-3.182 1.318s-1.318 1.94-1.318 3.182 0.505 2.369 1.318 3.182c0.112 0.112 0.23 0.218 0.353 0.318-0.123 0.1-0.241 0.206-0.353 0.318-0.813 0.813-1.318 1.94-1.318 3.182zM6 12.5c0-0.691 0.279-1.314 0.732-1.768s1.077-0.732 1.768-0.732h2.5v5h-2.5c-0.691 0-1.314-0.279-1.768-0.732s-0.732-1.077-0.732-1.768z"></path>
</symbol>
<symbol id="icon-gift" viewBox="0 0 24 24">
<path d="M11 13v8h-6v-8zM13 21v-8h6v8zM7.5 6c-0.414 0-0.788-0.167-1.061-0.439s-0.439-0.647-0.439-1.061 0.167-0.788 0.439-1.061 0.647-0.439 1.061-0.439c0.629 0 1.142 0.223 1.584 0.586 0.376 0.308 0.701 0.719 0.976 1.177 0.241 0.401 0.433 0.821 0.58 1.203zM13.346 6c0.161-0.416 0.353-0.836 0.593-1.237 0.275-0.459 0.601-0.869 0.976-1.177 0.443-0.363 0.956-0.586 1.585-0.586 0.414 0 0.788 0.167 1.061 0.439s0.439 0.647 0.439 1.061-0.167 0.788-0.439 1.061-0.647 0.439-1.061 0.439zM11 8v3h-8v-3h4.5zM19.663 6c0.216-0.455 0.337-0.963 0.337-1.5 0-0.966-0.393-1.843-1.025-2.475s-1.509-1.025-2.475-1.025c-1.16 0-2.109 0.43-2.852 1.039-0.603 0.494-1.068 1.103-1.423 1.694-0.080 0.133-0.155 0.266-0.225 0.398-0.070-0.132-0.145-0.265-0.225-0.398-0.355-0.591-0.82-1.2-1.423-1.694-0.743-0.609-1.692-1.039-2.852-1.039-0.966 0-1.843 0.393-2.475 1.025s-1.025 1.509-1.025 2.475c0 0.537 0.121 1.045 0.337 1.5h-2.337c-0.552 0-1 0.448-1 1v5c0 0.552 0.448 1 1 1h1v9c0 0.552 0.448 1 1 1h16c0.552 0 1-0.448 1-1v-9h1c0.552 0 1-0.448 1-1v-5c0-0.552-0.448-1-1-1zM13 8h8v3h-8z"></path>
</symbol>
<symbol id="icon-github" viewBox="0 0 24 24">
<path d="M8.713 18.042c-1.268 0.38-2.060 0.335-2.583 0.17-0.231-0.073-0.431-0.176-0.614-0.302-0.411-0.284-0.727-0.675-1.119-1.172-0.356-0.451-0.85-1.107-1.551-1.476-0.185-0.098-0.386-0.177-0.604-0.232-0.536-0.134-1.079 0.192-1.213 0.728s0.192 1.079 0.728 1.213c0.074 0.023 0.155 0.060 0.155 0.060 0.252 0.133 0.487 0.404 0.914 0.946 0.366 0.464 0.856 1.098 1.553 1.579 0.332 0.229 0.711 0.426 1.149 0.564 1.015 0.321 2.236 0.296 3.76-0.162 0.529-0.159 0.829-0.716 0.67-1.245s-0.716-0.829-1.245-0.67zM17 22v-3.792c0.052-0.684-0.056-1.343-0.292-1.942 0.777-0.171 1.563-0.427 2.297-0.823 2.083-1.124 3.496-3.242 3.496-6.923 0-1.503-0.516-2.887-1.379-3.981 0.355-1.345 0.226-2.726-0.293-3.933-0.122-0.283-0.359-0.482-0.634-0.564-0.357-0.106-1.732-0.309-4.373 1.362-2.273-0.541-4.557-0.509-6.646-0.002-2.639-1.669-4.013-1.466-4.37-1.36-0.296 0.088-0.521 0.3-0.635 0.565-0.554 1.292-0.624 2.672-0.292 3.932-0.93 1.178-1.387 2.601-1.379 4.017 0 3.622 1.389 5.723 3.441 6.859 0.752 0.416 1.56 0.685 2.357 0.867-0.185 0.468-0.286 0.961-0.304 1.456-0.005 0.141-0.003 0.283 0.005 0.424l0.001 3.838c0 0.552 0.448 1 1 1s1-0.448 1-1v-3.87c0-0.021-0.001-0.045-0.002-0.069-0.006-0.084-0.007-0.168-0.004-0.252 0.020-0.568 0.241-1.126 0.665-1.564 0.145-0.149 0.246-0.347 0.274-0.572 0.068-0.548-0.321-1.048-0.869-1.116-0.34-0.042-0.677-0.094-1.006-0.159-0.79-0.156-1.518-0.385-2.147-0.733-1.305-0.723-2.391-2.071-2.41-5.042 0.013-1.241 0.419-2.319 1.224-3.165 0.257-0.273 0.35-0.671 0.212-1.040-0.28-0.748-0.341-1.58-0.14-2.392 0.491 0.107 1.354 0.416 2.647 1.282 0.235 0.157 0.533 0.214 0.825 0.133 1.997-0.557 4.242-0.602 6.47 0.002 0.271 0.073 0.569 0.033 0.818-0.135 1.293-0.866 2.156-1.175 2.647-1.282 0.189 0.766 0.157 1.595-0.141 2.392-0.129 0.352-0.058 0.755 0.213 1.040 0.758 0.795 1.224 1.872 1.224 3.060 0 3.075-1.114 4.445-2.445 5.163-0.623 0.336-1.343 0.555-2.123 0.7-0.322 0.060-0.651 0.106-0.983 0.143-0.21 0.023-0.418 0.114-0.584 0.275-0.397 0.384-0.408 1.017-0.024 1.414 0.067 0.070 0.13 0.143 0.188 0.22 0.34 0.449 0.521 1.015 0.474 1.617 0 0.024-0.001 0.051-0.003 0.078v3.872c0 0.552 0.448 1 1 1s1-0.448 1-1z"></path>
</symbol>
<symbol id="icon-globe" viewBox="0 0 24 24">
<path d="M16.951 11c-0.214-2.69-1.102-5.353-2.674-7.71 1.57 0.409 2.973 1.232 4.087 2.346 1.408 1.408 2.351 3.278 2.581 5.364zM14.279 20.709c1.483-2.226 2.437-4.853 2.669-7.709h3.997c-0.23 2.086-1.173 3.956-2.581 5.364-1.113 1.113-2.516 1.936-4.085 2.345zM7.049 13c0.214 2.69 1.102 5.353 2.674 7.71-1.57-0.409-2.973-1.232-4.087-2.346-1.408-1.408-2.351-3.278-2.581-5.364zM9.721 3.291c-1.482 2.226-2.436 4.853-2.669 7.709h-3.997c0.23-2.086 1.173-3.956 2.581-5.364 1.114-1.113 2.516-1.936 4.085-2.345zM12.004 1c0 0 0 0 0 0-3.044 0.001-5.794 1.233-7.782 3.222-1.99 1.989-3.222 4.741-3.222 7.778s1.232 5.789 3.222 7.778c1.988 1.989 4.738 3.221 7.774 3.222 0 0 0 0 0 0 3.044-0.001 5.793-1.233 7.782-3.222 1.99-1.989 3.222-4.741 3.222-7.778s-1.232-5.789-3.222-7.778c-1.988-1.989-4.738-3.221-7.774-3.222zM14.946 13c-0.252 2.788-1.316 5.36-2.945 7.451-1.729-2.221-2.706-4.818-2.945-7.451zM11.999 3.549c1.729 2.221 2.706 4.818 2.945 7.451h-5.89c0.252-2.788 1.316-5.36 2.945-7.451z"></path>
</symbol>
<symbol id="icon-home" viewBox="0 0 24 24">
<path d="M2.386 8.211c-0.236 0.184-0.386 0.469-0.386 0.789v11c0 0.828 0.337 1.58 0.879 2.121s1.293 0.879 2.121 0.879h14c0.828 0 1.58-0.337 2.121-0.879s0.879-1.293 0.879-2.121v-11c-0.001-0.3-0.134-0.593-0.386-0.789l-9-7c-0.358-0.275-0.861-0.285-1.228 0zM16 21v-9c0-0.552-0.448-1-1-1h-6c-0.552 0-1 0.448-1 1v9h-3c-0.276 0-0.525-0.111-0.707-0.293s-0.293-0.431-0.293-0.707v-10.511l8-6.222 8 6.222v10.511c0 0.276-0.111 0.525-0.293 0.707s-0.431 0.293-0.707 0.293zM10 21v-8h4v8z"></path>
</symbol>
<symbol id="icon-instagram" viewBox="0 0 24 24">
<path d="M7 1c-1.657 0-3.158 0.673-4.243 1.757s-1.757 2.586-1.757 4.243v10c0 1.657 0.673 3.158 1.757 4.243s2.586 1.757 4.243 1.757h10c1.657 0 3.158-0.673 4.243-1.757s1.757-2.586 1.757-4.243v-10c0-1.657-0.673-3.158-1.757-4.243s-2.586-1.757-4.243-1.757zM7 3h10c1.105 0 2.103 0.447 2.828 1.172s1.172 1.723 1.172 2.828v10c0 1.105-0.447 2.103-1.172 2.828s-1.723 1.172-2.828 1.172h-10c-1.105 0-2.103-0.447-2.828-1.172s-1.172-1.723-1.172-2.828v-10c0-1.105 0.447-2.103 1.172-2.828s1.723-1.172 2.828-1.172zM16.989 11.223c-0.15-0.972-0.571-1.857-1.194-2.567-0.754-0.861-1.804-1.465-3.009-1.644-0.464-0.074-0.97-0.077-1.477-0.002-1.366 0.202-2.521 0.941-3.282 1.967s-1.133 2.347-0.93 3.712 0.941 2.521 1.967 3.282 2.347 1.133 3.712 0.93 2.521-0.941 3.282-1.967 1.133-2.347 0.93-3.712zM15.011 11.517c0.122 0.82-0.1 1.609-0.558 2.227s-1.15 1.059-1.969 1.18-1.609-0.1-2.227-0.558-1.059-1.15-1.18-1.969 0.1-1.609 0.558-2.227 1.15-1.059 1.969-1.18c0.313-0.046 0.615-0.042 0.87-0.002 0.74 0.11 1.366 0.47 1.818 0.986 0.375 0.428 0.63 0.963 0.72 1.543zM17.5 7.5c0.552 0 1-0.448 1-1s-0.448-1-1-1-1 0.448-1 1 0.448 1 1 1z"></path>
</symbol>
<symbol id="icon-link" viewBox="0 0 24 24">
<path d="M9.199 13.599c0.992 1.327 2.43 2.126 3.948 2.345s3.123-0.142 4.45-1.134c0.239-0.179 0.465-0.375 0.655-0.568l2.995-2.995c1.163-1.204 1.722-2.751 1.696-4.285s-0.639-3.061-1.831-4.211c-1.172-1.132-2.688-1.692-4.199-1.683-1.492 0.008-2.984 0.571-4.137 1.683l-1.731 1.721c-0.392 0.389-0.394 1.023-0.004 1.414s1.023 0.394 1.414 0.004l1.709-1.699c0.77-0.742 1.763-1.117 2.76-1.123 1.009-0.006 2.016 0.367 2.798 1.122 0.795 0.768 1.203 1.783 1.221 2.808s-0.355 2.054-1.11 2.836l-3.005 3.005c-0.114 0.116-0.263 0.247-0.428 0.37-0.885 0.662-1.952 0.902-2.967 0.756s-1.971-0.678-2.632-1.563c-0.331-0.442-0.957-0.533-1.4-0.202s-0.533 0.957-0.202 1.4zM14.801 10.401c-0.992-1.327-2.43-2.126-3.948-2.345s-3.124 0.142-4.451 1.134c-0.239 0.179-0.464 0.375-0.655 0.568l-2.995 2.995c-1.163 1.204-1.722 2.751-1.696 4.285s0.639 3.061 1.831 4.211c1.172 1.132 2.688 1.692 4.199 1.683 1.492-0.008 2.984-0.571 4.137-1.683l1.723-1.723c0.391-0.391 0.391-1.024 0-1.414s-1.024-0.391-1.414 0l-1.696 1.698c-0.77 0.742-1.763 1.117-2.76 1.123-1.009 0.006-2.016-0.367-2.798-1.122-0.795-0.768-1.203-1.783-1.221-2.808s0.355-2.054 1.11-2.836l3.005-3.005c0.114-0.116 0.263-0.247 0.428-0.37 0.885-0.662 1.952-0.902 2.967-0.756s1.971 0.678 2.632 1.563c0.331 0.442 0.957 0.533 1.4 0.202s0.533-0.957 0.202-1.4z"></path>
</symbol>
<symbol id="icon-link-2" viewBox="0 0 24 24">
<path d="M15 8h3c1.105 0 2.103 0.447 2.828 1.172s1.172 1.723 1.172 2.828-0.447 2.103-1.172 2.828-1.723 1.172-2.828 1.172h-3c-0.552 0-1 0.448-1 1s0.448 1 1 1h3c1.657 0 3.158-0.673 4.243-1.757s1.757-2.586 1.757-4.243-0.673-3.158-1.757-4.243-2.586-1.757-4.243-1.757h-3c-0.552 0-1 0.448-1 1s0.448 1 1 1zM9 16h-3c-1.105 0-2.103-0.447-2.828-1.172s-1.172-1.723-1.172-2.828 0.447-2.103 1.172-2.828 1.723-1.172 2.828-1.172h3c0.552 0 1-0.448 1-1s-0.448-1-1-1h-3c-1.657 0-3.158 0.673-4.243 1.757s-1.757 2.586-1.757 4.243 0.673 3.158 1.757 4.243 2.586 1.757 4.243 1.757h3c0.552 0 1-0.448 1-1s-0.448-1-1-1zM8 13h8c0.552 0 1-0.448 1-1s-0.448-1-1-1h-8c-0.552 0-1 0.448-1 1s0.448 1 1 1z"></path>
</symbol>
<symbol id="icon-linkedin" viewBox="0 0 24 24">
<path d="M16 7c-1.933 0-3.684 0.785-4.95 2.050s-2.050 3.017-2.050 4.95v7c0 0.552 0.448 1 1 1h4c0.552 0 1-0.448 1-1v-7c0-0.276 0.111-0.525 0.293-0.707s0.431-0.293 0.707-0.293 0.525 0.111 0.707 0.293 0.293 0.431 0.293 0.707v7c0 0.552 0.448 1 1 1h4c0.552 0 1-0.448 1-1v-7c0-1.933-0.785-3.684-2.050-4.95s-3.017-2.050-4.95-2.050zM16 9c1.381 0 2.63 0.559 3.536 1.464s1.464 2.155 1.464 3.536v6h-2v-6c0-0.828-0.337-1.58-0.879-2.121s-1.293-0.879-2.121-0.879-1.58 0.337-2.121 0.879-0.879 1.293-0.879 2.121v6h-2v-6c0-1.381 0.559-2.63 1.464-3.536s2.155-1.464 3.536-1.464zM2 8c-0.552 0-1 0.448-1 1v12c0 0.552 0.448 1 1 1h4c0.552 0 1-0.448 1-1v-12c0-0.552-0.448-1-1-1zM3 10h2v10h-2zM7 4c0-0.828-0.337-1.58-0.879-2.121s-1.293-0.879-2.121-0.879-1.58 0.337-2.121 0.879-0.879 1.293-0.879 2.121 0.337 1.58 0.879 2.121 1.293 0.879 2.121 0.879 1.58-0.337 2.121-0.879 0.879-1.293 0.879-2.121zM5 4c0 0.276-0.111 0.525-0.293 0.707s-0.431 0.293-0.707 0.293-0.525-0.111-0.707-0.293-0.293-0.431-0.293-0.707 0.111-0.525 0.293-0.707 0.431-0.293 0.707-0.293 0.525 0.111 0.707 0.293 0.293 0.431 0.293 0.707z"></path>
</symbol>
<symbol id="icon-log-in" viewBox="0 0 24 24">
<path d="M15 4h4c0.276 0 0.525 0.111 0.707 0.293s0.293 0.431 0.293 0.707v14c0 0.276-0.111 0.525-0.293 0.707s-0.431 0.293-0.707 0.293h-4c-0.552 0-1 0.448-1 1s0.448 1 1 1h4c0.828 0 1.58-0.337 2.121-0.879s0.879-1.293 0.879-2.121v-14c0-0.828-0.337-1.58-0.879-2.121s-1.293-0.879-2.121-0.879h-4c-0.552 0-1 0.448-1 1s0.448 1 1 1zM12.586 11h-9.586c-0.552 0-1 0.448-1 1s0.448 1 1 1h9.586l-3.293 3.293c-0.391 0.391-0.391 1.024 0 1.414s1.024 0.391 1.414 0l5-5c0.096-0.096 0.168-0.206 0.217-0.324s0.076-0.247 0.076-0.383c0-0.13-0.025-0.261-0.076-0.383-0.049-0.118-0.121-0.228-0.217-0.324l-5-5c-0.391-0.391-1.024-0.391-1.414 0s-0.391 1.024 0 1.414z"></path>
</symbol>
<symbol id="icon-log-out" viewBox="0 0 24 24">
<path d="M9 20h-4c-0.276 0-0.525-0.111-0.707-0.293s-0.293-0.431-0.293-0.707v-14c0-0.276 0.111-0.525 0.293-0.707s0.431-0.293 0.707-0.293h4c0.552 0 1-0.448 1-1s-0.448-1-1-1h-4c-0.828 0-1.58 0.337-2.121 0.879s-0.879 1.293-0.879 2.121v14c0 0.828 0.337 1.58 0.879 2.121s1.293 0.879 2.121 0.879h4c0.552 0 1-0.448 1-1s-0.448-1-1-1zM18.586 11h-9.586c-0.552 0-1 0.448-1 1s0.448 1 1 1h9.586l-3.293 3.293c-0.391 0.391-0.391 1.024 0 1.414s1.024 0.391 1.414 0l5-5c0.092-0.092 0.166-0.202 0.217-0.324 0.15-0.362 0.078-0.795-0.217-1.090l-5-5c-0.391-0.391-1.024-0.391-1.414 0s-0.391 1.024 0 1.414z"></path>
</symbol>
<symbol id="icon-mail" viewBox="0 0 24 24">
<path d="M3 7.921l8.427 5.899c0.34 0.235 0.795 0.246 1.147 0l8.426-5.899v10.079c0 0.272-0.11 0.521-0.295 0.705s-0.433 0.295-0.705 0.295h-16c-0.272 0-0.521-0.11-0.705-0.295s-0.295-0.433-0.295-0.705zM1 5.983c0 0.010 0 0.020 0 0.030v11.987c0 0.828 0.34 1.579 0.88 2.12s1.292 0.88 2.12 0.88h16c0.828 0 1.579-0.34 2.12-0.88s0.88-1.292 0.88-2.12v-11.988c0-0.010 0-0.020 0-0.030-0.005-0.821-0.343-1.565-0.88-2.102-0.541-0.54-1.292-0.88-2.12-0.88h-16c-0.828 0-1.579 0.34-2.12 0.88-0.537 0.537-0.875 1.281-0.88 2.103zM20.894 5.554l-8.894 6.225-8.894-6.225c0.048-0.096 0.112-0.183 0.188-0.259 0.185-0.185 0.434-0.295 0.706-0.295h16c0.272 0 0.521 0.11 0.705 0.295 0.076 0.076 0.14 0.164 0.188 0.259z"></path>
</symbol>
<symbol id="icon-map-pin" viewBox="0 0 24 24">
<path d="M22 10c0-2.761-1.12-5.263-2.929-7.071s-4.31-2.929-7.071-2.929-5.263 1.12-7.071 2.929-2.929 4.31-2.929 7.071c0 0.569 0.053 1.128 0.15 1.676 0.274 1.548 0.899 3.004 1.682 4.32 2.732 4.591 7.613 7.836 7.613 7.836 0.331 0.217 0.765 0.229 1.109 0 0 0 4.882-3.245 7.613-7.836 0.783-1.316 1.408-2.772 1.682-4.32 0.098-0.548 0.151-1.107 0.151-1.676zM20 10c0 0.444-0.041 0.887-0.119 1.328-0.221 1.25-0.737 2.478-1.432 3.646-1.912 3.214-5.036 5.747-6.369 6.74-1.398-0.916-4.588-3.477-6.53-6.74-0.695-1.168-1.211-2.396-1.432-3.646-0.077-0.441-0.118-0.884-0.118-1.328 0-2.209 0.894-4.208 2.343-5.657s3.448-2.343 5.657-2.343 4.208 0.894 5.657 2.343 2.343 3.448 2.343 5.657zM16 10c0-1.104-0.449-2.106-1.172-2.828s-1.724-1.172-2.828-1.172-2.106 0.449-2.828 1.172-1.172 1.724-1.172 2.828 0.449 2.106 1.172 2.828 1.724 1.172 2.828 1.172 2.106-0.449 2.828-1.172 1.172-1.724 1.172-2.828zM14 10c0 0.553-0.223 1.051-0.586 1.414s-0.861 0.586-1.414 0.586-1.051-0.223-1.414-0.586-0.586-0.861-0.586-1.414 0.223-1.051 0.586-1.414 0.861-0.586 1.414-0.586 1.051 0.223 1.414 0.586 0.586 0.861 0.586 1.414z"></path>
</symbol>
<symbol id="icon-menu" viewBox="0 0 24 24">
<path d="M3 13h18c0.552 0 1-0.448 1-1s-0.448-1-1-1h-18c-0.552 0-1 0.448-1 1s0.448 1 1 1zM3 7h18c0.552 0 1-0.448 1-1s-0.448-1-1-1h-18c-0.552 0-1 0.448-1 1s0.448 1 1 1zM3 19h18c0.552 0 1-0.448 1-1s-0.448-1-1-1h-18c-0.552 0-1 0.448-1 1s0.448 1 1 1z"></path>
</symbol>
<symbol id="icon-message-square" viewBox="0 0 24 24">
<path d="M22 15v-10c0-0.828-0.337-1.58-0.879-2.121s-1.293-0.879-2.121-0.879h-14c-0.828 0-1.58 0.337-2.121 0.879s-0.879 1.293-0.879 2.121v16c0 0.256 0.098 0.512 0.293 0.707 0.391 0.391 1.024 0.391 1.414 0l3.707-3.707h11.586c0.828 0 1.58-0.337 2.121-0.879s0.879-1.293 0.879-2.121zM20 15c0 0.276-0.111 0.525-0.293 0.707s-0.431 0.293-0.707 0.293h-12c-0.276 0-0.526 0.112-0.707 0.293l-2.293 2.293v-13.586c0-0.276 0.111-0.525 0.293-0.707s0.431-0.293 0.707-0.293h14c0.276 0 0.525 0.111 0.707 0.293s0.293 0.431 0.293 0.707z"></path>
</symbol>
<symbol id="icon-phone" viewBox="0 0 24 24">
<path d="M23 16.92c0.016-0.714-0.236-1.404-0.673-1.943-0.46-0.566-1.129-0.967-1.925-1.080-0.8-0.098-1.695-0.314-2.586-0.646-0.433-0.159-0.893-0.218-1.344-0.174-0.663 0.064-1.307 0.349-1.819 0.855l-0.72 0.72c-1.77-1.117-3.36-2.667-4.583-4.589l0.726-0.726c0.322-0.33 0.563-0.726 0.707-1.156 0.212-0.632 0.214-1.336-0.039-2.011-0.289-0.753-0.518-1.644-0.644-2.595-0.104-0.714-0.456-1.345-0.963-1.804-0.539-0.486-1.256-0.779-2.027-0.771h-2.996c-0.088 0-0.182 0.004-0.273 0.012-0.824 0.075-1.542 0.478-2.033 1.066s-0.758 1.367-0.683 2.199c0.3 3.076 1.365 6.243 3.216 9.102 1.502 2.413 3.648 4.623 6.298 6.306 2.568 1.697 5.684 2.862 9.086 3.231 0.092 0.009 0.191 0.013 0.288 0.013 0.828-0.003 1.578-0.343 2.118-0.887s0.873-1.297 0.87-2.121zM21 16.92v3c0.001 0.28-0.109 0.53-0.29 0.712s-0.429 0.295-0.706 0.296c-3.149-0.336-5.961-1.391-8.263-2.912-2.428-1.543-4.359-3.537-5.702-5.694-1.697-2.62-2.655-5.481-2.924-8.238-0.024-0.268 0.064-0.526 0.229-0.724s0.403-0.33 0.678-0.355l3.088-0.005c0.271-0.003 0.507 0.094 0.687 0.256 0.17 0.154 0.288 0.366 0.323 0.608 0.142 1.072 0.408 2.117 0.757 3.025 0.081 0.216 0.080 0.447 0.010 0.658-0.049 0.145-0.131 0.281-0.242 0.395l-1.262 1.261c-0.324 0.324-0.379 0.814-0.162 1.201 1.584 2.785 3.839 4.957 6.381 6.378 0.397 0.222 0.882 0.144 1.195-0.166l1.27-1.27c0.166-0.164 0.377-0.257 0.598-0.279 0.152-0.015 0.31 0.005 0.459 0.060 1.022 0.381 2.070 0.636 3.034 0.754 0.241 0.034 0.462 0.166 0.615 0.355 0.147 0.181 0.231 0.412 0.226 0.682z"></path>
</symbol>
<symbol id="icon-plus" viewBox="0 0 24 24">
<path d="M5 13h6v6c0 0.552 0.448 1 1 1s1-0.448 1-1v-6h6c0.552 0 1-0.448 1-1s-0.448-1-1-1h-6v-6c0-0.552-0.448-1-1-1s-1 0.448-1 1v6h-6c-0.552 0-1 0.448-1 1s0.448 1 1 1z"></path>
</symbol>
<symbol id="icon-search" viewBox="0 0 24 24">
<path d="M16.041 15.856c-0.034 0.026-0.067 0.055-0.099 0.087s-0.060 0.064-0.087 0.099c-1.258 1.213-2.969 1.958-4.855 1.958-1.933 0-3.682-0.782-4.95-2.050s-2.050-3.017-2.050-4.95 0.782-3.682 2.050-4.95 3.017-2.050 4.95-2.050 3.682 0.782 4.95 2.050 2.050 3.017 2.050 4.95c0 1.886-0.745 3.597-1.959 4.856zM21.707 20.293l-3.675-3.675c1.231-1.54 1.968-3.493 1.968-5.618 0-2.485-1.008-4.736-2.636-6.364s-3.879-2.636-6.364-2.636-4.736 1.008-6.364 2.636-2.636 3.879-2.636 6.364 1.008 4.736 2.636 6.364 3.879 2.636 6.364 2.636c2.125 0 4.078-0.737 5.618-1.968l3.675 3.675c0.391 0.391 1.024 0.391 1.414 0s0.391-1.024 0-1.414z"></path>
</symbol>
<symbol id="icon-share-2" viewBox="0 0 24 24">
<path d="M16.214 18.098c0.025-0.033 0.048-0.067 0.070-0.104 0.020-0.035 0.038-0.071 0.054-0.107 0.073-0.108 0.156-0.209 0.248-0.301 0.363-0.363 0.861-0.586 1.414-0.586s1.051 0.223 1.414 0.586 0.586 0.861 0.586 1.414-0.223 1.051-0.586 1.414-0.861 0.586-1.414 0.586-1.051-0.223-1.414-0.586-0.586-0.861-0.586-1.414c0-0.325 0.077-0.631 0.214-0.902zM16.301 6.056c-0.009-0.017-0.018-0.034-0.028-0.051s-0.020-0.034-0.031-0.050c-0.154-0.283-0.242-0.608-0.242-0.955 0-0.553 0.223-1.051 0.586-1.414s0.861-0.586 1.414-0.586 1.051 0.223 1.414 0.586 0.586 0.861 0.586 1.414-0.223 1.051-0.586 1.414-0.861 0.586-1.414 0.586-1.051-0.223-1.414-0.586c-0.108-0.108-0.204-0.228-0.285-0.358zM7.699 10.944c0.009 0.017 0.018 0.034 0.028 0.051s0.020 0.034 0.031 0.050c0.154 0.283 0.242 0.608 0.242 0.955s-0.088 0.672-0.243 0.956c-0.011 0.016-0.021 0.033-0.031 0.050s-0.019 0.033-0.027 0.050c-0.081 0.13-0.177 0.25-0.285 0.358-0.363 0.363-0.861 0.586-1.414 0.586s-1.051-0.223-1.414-0.586-0.586-0.861-0.586-1.414 0.223-1.051 0.586-1.414 0.861-0.586 1.414-0.586 1.051 0.223 1.414 0.586c0.108 0.108 0.204 0.228 0.285 0.358zM14.15 6.088l-5.308 3.097c-0.004-0.005-0.009-0.009-0.014-0.014-0.722-0.722-1.724-1.171-2.828-1.171s-2.106 0.449-2.828 1.172-1.172 1.724-1.172 2.828 0.449 2.106 1.172 2.828 1.724 1.172 2.828 1.172 2.106-0.449 2.828-1.172c0.005-0.005 0.009-0.009 0.014-0.014l5.309 3.094c-0.098 0.347-0.151 0.714-0.151 1.092 0 1.104 0.449 2.106 1.172 2.828s1.724 1.172 2.828 1.172 2.106-0.449 2.828-1.172 1.172-1.724 1.172-2.828-0.449-2.106-1.172-2.828-1.724-1.172-2.828-1.172-2.106 0.449-2.828 1.172c-0.003 0.003-0.007 0.007-0.010 0.010l-5.312-3.095c0.098-0.346 0.15-0.71 0.15-1.087s-0.052-0.742-0.15-1.088l5.308-3.098c0.004 0.005 0.009 0.009 0.014 0.014 0.722 0.723 1.724 1.172 2.828 1.172s2.106-0.449 2.828-1.172 1.172-1.724 1.172-2.828-0.449-2.106-1.172-2.828-1.724-1.172-2.828-1.172-2.106 0.449-2.828 1.172-1.172 1.724-1.172 2.828c0 0.377 0.052 0.742 0.15 1.088z"></path>
</symbol>
<symbol id="icon-shield" viewBox="0 0 24 24">
<path d="M12 20.862c-1.184-0.672-4.42-2.695-6.050-5.549-0.079-0.138-0.153-0.276-0.223-0.417-0.456-0.911-0.727-1.878-0.727-2.896v-6.307l7-2.625 7 2.625v6.307c0 1.018-0.271 1.985-0.726 2.897-0.070 0.14-0.145 0.279-0.223 0.417-1.631 2.854-4.867 4.876-6.050 5.549zM12.447 22.894c0 0 4.989-2.475 7.34-6.589 0.096-0.168 0.188-0.34 0.276-0.515 0.568-1.135 0.937-2.408 0.937-3.79v-7c0-0.426-0.267-0.79-0.649-0.936l-8-3c-0.236-0.089-0.485-0.082-0.702 0l-8 3c-0.399 0.149-0.646 0.527-0.649 0.936v7c0 1.382 0.369 2.655 0.938 3.791 0.087 0.175 0.179 0.346 0.276 0.515 2.351 4.114 7.34 6.589 7.34 6.589 0.292 0.146 0.62 0.136 0.894 0z"></path>
</symbol>
<symbol id="icon-slack" viewBox="0 0 24 24">
<path d="M14.5 11c0.69 0 1.316-0.28 1.768-0.732s0.732-1.078 0.732-1.768v-5c0-0.69-0.28-1.316-0.732-1.768s-1.078-0.732-1.768-0.732-1.316 0.28-1.768 0.732-0.732 1.078-0.732 1.768v5c0 0.69 0.28 1.316 0.732 1.768s1.078 0.732 1.768 0.732zM14.5 9c-0.14 0-0.264-0.055-0.354-0.146s-0.146-0.214-0.146-0.354v-5c0-0.14 0.055-0.264 0.146-0.354s0.214-0.146 0.354-0.146 0.264 0.055 0.354 0.146 0.146 0.214 0.146 0.354v5c0 0.14-0.055 0.264-0.146 0.354s-0.214 0.146-0.354 0.146zM20.5 11c0.69 0 1.316-0.28 1.768-0.732s0.732-1.078 0.732-1.768-0.28-1.316-0.732-1.768-1.078-0.732-1.768-0.732-1.316 0.28-1.768 0.732-0.732 1.078-0.732 1.768v1.5c0 0.552 0.448 1 1 1zM20.5 9h-0.5v-0.5c0-0.14 0.055-0.264 0.146-0.354s0.214-0.146 0.354-0.146 0.264 0.055 0.354 0.146 0.146 0.214 0.146 0.354-0.055 0.264-0.146 0.354-0.214 0.146-0.354 0.146zM9.5 13c-0.69 0-1.316 0.28-1.768 0.732s-0.732 1.078-0.732 1.768v5c0 0.69 0.28 1.316 0.732 1.768s1.078 0.732 1.768 0.732 1.316-0.28 1.768-0.732 0.732-1.078 0.732-1.768v-5c0-0.69-0.28-1.316-0.732-1.768s-1.078-0.732-1.768-0.732zM9.5 15c0.14 0 0.264 0.055 0.354 0.146s0.146 0.214 0.146 0.354v5c0 0.14-0.055 0.264-0.146 0.354s-0.214 0.146-0.354 0.146-0.264-0.055-0.354-0.146-0.146-0.214-0.146-0.354v-5c0-0.14 0.055-0.264 0.146-0.354s0.214-0.146 0.354-0.146zM3.5 13c-0.69 0-1.316 0.28-1.768 0.732s-0.732 1.078-0.732 1.768 0.28 1.316 0.732 1.768 1.078 0.732 1.768 0.732 1.316-0.28 1.768-0.732 0.732-1.078 0.732-1.768v-1.5c0-0.552-0.448-1-1-1zM3.5 15h0.5v0.5c0 0.14-0.055 0.264-0.146 0.354s-0.214 0.146-0.354 0.146-0.264-0.055-0.354-0.146-0.146-0.214-0.146-0.354 0.055-0.264 0.146-0.354 0.214-0.146 0.354-0.146zM13 14.5c0 0.69 0.28 1.316 0.732 1.768s1.078 0.732 1.768 0.732h5c0.69 0 1.316-0.28 1.768-0.732s0.732-1.078 0.732-1.768-0.28-1.316-0.732-1.768-1.078-0.732-1.768-0.732h-5c-0.69 0-1.316 0.28-1.768 0.732s-0.732 1.078-0.732 1.768zM15 14.5c0-0.14 0.055-0.264 0.146-0.354s0.214-0.146 0.354-0.146h5c0.14 0 0.264 0.055 0.354 0.146s0.146 0.214 0.146 0.354-0.055 0.264-0.146 0.354-0.214 0.146-0.354 0.146h-5c-0.14 0-0.264-0.055-0.354-0.146s-0.146-0.214-0.146-0.354zM15.5 20c0.14 0 0.264 0.055 0.354 0.146s0.146 0.214 0.146 0.354-0.055 0.264-0.146 0.354-0.214 0.146-0.354 0.146-0.264-0.055-0.354-0.146-0.146-0.214-0.146-0.354v-0.5zM15.5 18h-1.5c-0.552 0-1 0.448-1 1v1.5c0 0.69 0.28 1.316 0.732 1.768s1.078 0.732 1.768 0.732 1.316-0.28 1.768-0.732 0.732-1.078 0.732-1.768-0.28-1.316-0.732-1.768-1.078-0.732-1.768-0.732zM9 9.5c0 0.14-0.055 0.264-0.146 0.354s-0.214 0.146-0.354 0.146h-5c-0.14 0-0.264-0.055-0.354-0.146s-0.146-0.214-0.146-0.354 0.055-0.264 0.146-0.354 0.214-0.146 0.354-0.146h5c0.14 0 0.264 0.055 0.354 0.146s0.146 0.214 0.146 0.354zM11 9.5c0-0.69-0.28-1.316-0.732-1.768s-1.078-0.732-1.768-0.732h-5c-0.69 0-1.316 0.28-1.768 0.732s-0.732 1.078-0.732 1.768 0.28 1.316 0.732 1.768 1.078 0.732 1.768 0.732h5c0.69 0 1.316-0.28 1.768-0.732s0.732-1.078 0.732-1.768zM8.5 4c-0.14 0-0.264-0.055-0.354-0.146s-0.146-0.214-0.146-0.354 0.055-0.264 0.146-0.354 0.214-0.146 0.354-0.146 0.264 0.055 0.354 0.146 0.146 0.214 0.146 0.354v0.5zM8.5 6h1.5c0.552 0 1-0.448 1-1v-1.5c0-0.69-0.28-1.316-0.732-1.768s-1.078-0.732-1.768-0.732-1.316 0.28-1.768 0.732-0.732 1.078-0.732 1.768 0.28 1.316 0.732 1.768 1.078 0.732 1.768 0.732z"></path>
</symbol>
<symbol id="icon-twitch" viewBox="0 0 24 24">
<path d="M20 3v10.586l-3.414 3.414h-4.586c-0.256 0-0.512 0.098-0.707 0.293l-2.293 2.293v-1.586c0-0.552-0.448-1-1-1h-4v-14zM21 1h-18c-0.552 0-1 0.448-1 1v16c0 0.552 0.448 1 1 1h4v3c0 0.552 0.448 1 1 1 0.276 0 0.526-0.112 0.707-0.293l3.707-3.707h4.586c0.276 0 0.526-0.112 0.707-0.293l4-4c0.195-0.195 0.293-0.451 0.293-0.707v-12c0-0.552-0.448-1-1-1zM12 11v-4c0-0.552-0.448-1-1-1s-1 0.448-1 1v4c0 0.552 0.448 1 1 1s1-0.448 1-1zM17 11v-4c0-0.552-0.448-1-1-1s-1 0.448-1 1v4c0 0.552 0.448 1 1 1s1-0.448 1-1z"></path>
</symbol>
<symbol id="icon-twitter" viewBox="0 0 24 24">
<path d="M20.833 5.262c-0.186 0.242-0.391 0.475-0.616 0.696-0.233 0.232-0.347 0.567-0.278 0.908 0.037 0.182 0.060 0.404 0.061 0.634 0 5.256-2.429 8.971-5.81 10.898-2.647 1.509-5.938 1.955-9.222 1.12 1.245-0.361 2.46-0.921 3.593-1.69 0.147-0.099 0.273-0.243 0.352-0.421 0.224-0.505-0.003-1.096-0.508-1.32-2.774-1.233-4.13-2.931-4.769-4.593-0.417-1.084-0.546-2.198-0.52-3.227 0.021-0.811 0.138-1.56 0.278-2.182 0.394 0.343 0.803 0.706 1.235 1.038 2.051 1.577 4.624 2.479 7.395 2.407 0.543-0.015 0.976-0.457 0.976-1v-1.011c-0.002-0.179 0.009-0.357 0.034-0.533 0.113-0.806 0.504-1.569 1.162-2.141 0.725-0.631 1.636-0.908 2.526-0.846s1.753 0.463 2.384 1.188c0.252 0.286 0.649 0.416 1.033 0.304 0.231-0.067 0.463-0.143 0.695-0.228zM22.424 2.183c-0.74 0.522-1.523 0.926-2.287 1.205-0.931-0.836-2.091-1.302-3.276-1.385-1.398-0.097-2.836 0.339-3.977 1.332-1.036 0.901-1.652 2.108-1.83 3.372-0.037 0.265-0.055 0.532-0.054 0.8-1.922-0.142-3.693-0.85-5.15-1.97-0.775-0.596-1.462-1.309-2.034-2.116-0.32-0.45-0.944-0.557-1.394-0.237-0.154 0.109-0.267 0.253-0.335 0.409 0 0-0.132 0.299-0.285 0.76-0.112 0.337-0.241 0.775-0.357 1.29-0.163 0.722-0.302 1.602-0.326 2.571-0.031 1.227 0.12 2.612 0.652 3.996 0.683 1.775 1.966 3.478 4.147 4.823-1.569 0.726-3.245 1.039-4.873 0.967-0.552-0.024-1.019 0.403-1.043 0.955-0.017 0.389 0.19 0.736 0.513 0.918 4.905 2.725 10.426 2.678 14.666 0.261 4.040-2.301 6.819-6.7 6.819-12.634-0.001-0.167-0.008-0.33-0.023-0.489 1.006-1.115 1.676-2.429 1.996-3.781 0.127-0.537-0.206-1.076-0.743-1.203-0.29-0.069-0.58-0.003-0.807 0.156z"></path>
</symbol>
<symbol id="icon-youtube" viewBox="0 0 24 24">
<path d="M21.563 6.637c0.287 1.529 0.448 3.295 0.437 5.125 0.019 1.528-0.123 3.267-0.437 5.021-0.057 0.208-0.15 0.403-0.272 0.575-0.227 0.321-0.558 0.565-0.949 0.675-0.604 0.161-2.156 0.275-3.877 0.341-2.23 0.086-4.465 0.086-4.465 0.086s-2.235 0-4.465-0.085c-1.721-0.066-3.273-0.179-3.866-0.338-0.205-0.057-0.396-0.149-0.566-0.268-0.311-0.22-0.55-0.536-0.67-0.923-0.285-1.526-0.444-3.286-0.433-5.11-0.021-1.54 0.121-3.292 0.437-5.060 0.057-0.208 0.15-0.403 0.272-0.575 0.227-0.321 0.558-0.565 0.949-0.675 0.604-0.161 2.156-0.275 3.877-0.341 2.23-0.085 4.465-0.085 4.465-0.085s2.235 0 4.466 0.078c1.719 0.060 3.282 0.163 3.856 0.303 0.219 0.063 0.421 0.165 0.598 0.299 0.307 0.232 0.538 0.561 0.643 0.958zM23.51 6.177c-0.217-0.866-0.718-1.59-1.383-2.093-0.373-0.282-0.796-0.494-1.249-0.625-0.898-0.22-2.696-0.323-4.342-0.38-2.267-0.079-4.536-0.079-4.536-0.079s-2.272 0-4.541 0.087c-1.642 0.063-3.45 0.175-4.317 0.407-0.874 0.247-1.581 0.77-2.064 1.45-0.27 0.381-0.469 0.811-0.587 1.268-0.006 0.024-0.011 0.049-0.015 0.071-0.343 1.898-0.499 3.793-0.476 5.481-0.012 1.924 0.161 3.831 0.477 5.502 0.006 0.031 0.013 0.062 0.021 0.088 0.245 0.86 0.77 1.567 1.451 2.048 0.357 0.252 0.757 0.443 1.182 0.561 0.879 0.235 2.686 0.347 4.328 0.41 2.269 0.087 4.541 0.087 4.541 0.087s2.272 0 4.541-0.087c1.642-0.063 3.449-0.175 4.317-0.407 0.873-0.247 1.581-0.77 2.063-1.45 0.27-0.381 0.47-0.811 0.587-1.267 0.006-0.025 0.012-0.050 0.015-0.071 0.34-1.884 0.496-3.765 0.476-5.44 0.012-1.925-0.161-3.833-0.477-5.504-0.004-0.020-0.008-0.040-0.012-0.057zM10.75 13.301v-3.102l2.727 1.551zM10.244 15.889l5.75-3.27c0.48-0.273 0.648-0.884 0.375-1.364-0.093-0.164-0.226-0.292-0.375-0.375l-5.75-3.27c-0.48-0.273-1.091-0.105-1.364 0.375-0.090 0.158-0.132 0.33-0.131 0.494v6.54c0 0.552 0.448 1 1 1 0.182 0 0.352-0.049 0.494-0.131z"></path>
</symbol>
</defs>
</svg>
